<?xml version="1.0" encoding="UTF-8"?>
<svg width="64px" height="64px" viewBox="0 0 64 64" version="1.1" xmlns="http://www.w3.org/2000/svg" xmlns:xlink="http://www.w3.org/1999/xlink">
    <g stroke="none" stroke-width="1" fill="none" fill-rule="evenodd">
        <path d="M32,0 C49.673,0 64,14.327 64,32 C64,49.673 49.673,64 32,64 C14.327,64 0,49.673 0,32 C0,14.327 14.327,0 32,0 Z" fill="#446DFF"></path>
        <path d="M43,22 C45.209,22 47,23.791 47,26 L47,38 C47,40.209 45.209,42 43,42 L21,42 C18.791,42 17,40.209 17,38 L17,26 C17,23.791 18.791,22 21,22 L43,22 Z M25,25 C23.895,25 23,25.895 23,27 L23,37 C23,38.105 23.895,39 25,39 C26.105,39 27,38.105 27,37 L27,27 C27,25.895 26.105,25 25,25 Z M32,25 C30.895,25 30,25.895 30,27 L30,37 C30,38.105 30.895,39 32,39 C33.105,39 34,38.105 34,37 L34,27 C34,25.895 33.105,25 32,25 Z M39,25 C37.895,25 37,25.895 37,27 L37,37 C37,38.105 37.895,39 39,39 C40.105,39 41,38.105 41,37 L41,27 C41,25.895 40.105,25 39,25 Z" fill="#FFFFFF"></path>
    </g>
</svg> 